<svg width="18" height="20" viewBox="0 0 18 20" fill="none" xmlns="http://www.w3.org/2000/svg">
<g id="Frame" clip-path="url(#clip0_2495_29946)">
<g id="Group">
<path id="Vector" d="M1.79359 9.98415C1.79359 9.85737 1.79359 9.76228 1.79359 9.69889C1.79359 6.84628 1.79359 3.96197 1.79359 1.10935C1.79359 0.348653 2.14591 0 2.91459 0C6.21352 0 9.48043 0 12.7794 0C13.0036 0 13.1637 0.0633914 13.3559 0.22187C14.2206 1.10935 15.1174 1.96513 16.0142 2.85262C16.1423 2.9794 16.2064 3.13788 16.2064 3.32805C16.2064 5.45166 16.2064 7.54358 16.2064 9.6672C16.2064 9.76228 16.2064 9.85737 16.2064 9.98415C16.4947 9.98415 16.8149 9.98415 17.1032 9.98415C17.7438 9.98415 18 10.2377 18 10.8716C18 12.7734 18 14.6751 18 16.5769C18 16.7987 17.9359 16.9572 17.7758 17.1157C17.2954 17.5911 16.8149 18.0666 16.3345 18.542C16.2705 18.6054 16.2064 18.7639 16.2064 18.859C16.1744 19.0174 16.2064 19.1759 16.1423 19.3344C16.0463 19.7147 15.6939 19.9683 15.3096 19.9683C15.2456 19.9683 15.1495 19.9683 15.0854 19.9683C11.0178 19.9683 6.95018 19.9683 2.91459 19.9683C2.17794 19.9683 1.79359 19.6197 1.82562 18.8906C1.82562 18.7322 1.79359 18.6054 1.66548 18.4786C1.18505 18.0032 0.672598 17.5277 0.224199 17.0523C0.0960854 16.9572 0 16.7987 0 16.6719C0 14.7068 0 12.71 0 10.7449C0 10.3011 0.288256 9.98415 0.768683 9.98415C1.08897 9.98415 1.44128 9.98415 1.79359 9.98415ZM12.5872 0.729002C12.4911 0.729002 12.4591 0.729002 12.395 0.729002C9.2242 0.729002 6.05338 0.729002 2.88256 0.729002C2.56228 0.729002 2.53025 0.760697 2.53025 1.04596C2.53025 3.96197 2.53025 6.84628 2.53025 9.76228C2.53025 9.82567 2.53025 9.88907 2.53025 9.95246C6.85409 9.95246 11.1459 9.95246 15.4377 9.95246C15.4377 7.82884 15.4377 5.70523 15.4377 3.54992C15.3416 3.54992 15.2776 3.54992 15.2135 3.54992C14.5089 3.54992 13.8043 3.54992 13.0676 3.54992C12.6833 3.54992 12.5552 3.45483 12.5552 3.04279C12.5872 2.28209 12.5872 1.52139 12.5872 0.729002ZM2.53025 17.084C2.53025 17.7496 2.53025 18.4152 2.53025 19.0808C2.53025 19.1442 2.65836 19.2393 2.72242 19.271C2.78648 19.3027 2.88256 19.271 2.97865 19.271C6.98221 19.271 10.9537 19.271 14.9573 19.271C15.0214 19.271 15.1174 19.271 15.1815 19.271C15.3737 19.271 15.4698 19.1759 15.4698 18.9857C15.4698 18.4469 15.4698 17.9081 15.4698 17.3693C15.4698 17.2742 15.4698 17.1791 15.4698 17.0523C11.1459 17.084 6.85409 17.084 2.53025 17.084ZM8.1032 12.0444C7.84697 12.0444 7.6548 12.0444 7.46263 12.0444C7.36655 12.0444 7.27046 12.1078 7.23843 12.1712C7.07829 12.393 6.95018 12.6466 6.79004 12.9002C6.59787 12.6466 6.43772 12.393 6.27758 12.1712C6.21352 12.1078 6.14947 12.0444 6.08541 12.0444C5.82918 12.0444 5.60498 12.0444 5.31673 12.0444C5.66904 12.5515 5.9573 12.9952 6.27758 13.4707C5.9573 13.9778 5.66904 14.4532 5.34875 14.9604C5.57295 14.9604 5.76512 14.9604 5.9573 14.9604C6.08541 14.9604 6.18149 14.9287 6.24555 14.8019C6.37367 14.5483 6.53381 14.3265 6.69395 14.0729C6.88612 14.3582 7.04626 14.58 7.20641 14.8336C7.23843 14.897 7.30249 14.9604 7.33452 14.9604C7.59075 14.9604 7.84697 14.9604 8.13523 14.9604C7.81495 14.4849 7.55872 14.0729 7.27046 13.6609C7.20641 13.5658 7.20641 13.4707 7.27046 13.3756C7.55872 12.9319 7.81495 12.5198 8.1032 12.0444ZM12.4911 12.8685C12.4591 12.5198 12.2989 12.2979 12.0107 12.1395C11.6904 11.981 11.3701 11.981 11.0498 12.0444C10.6335 12.1395 10.4093 12.393 10.3772 12.7734C10.3452 13.1537 10.5053 13.4073 10.8897 13.5975C11.0498 13.6609 11.21 13.7242 11.3701 13.8193C11.4662 13.851 11.5943 13.9144 11.6584 13.9778C11.7224 14.0412 11.7544 14.1997 11.7224 14.2631C11.6904 14.3265 11.5623 14.3899 11.4982 14.4216C11.3381 14.4532 11.21 14.3582 11.1139 14.1997C11.0819 14.1363 11.0178 14.0729 10.9537 14.0729C10.7616 14.0729 10.5374 14.0729 10.3452 14.0729C10.3452 14.3899 10.4733 14.58 10.6975 14.7385C11.1459 15.0238 11.6263 15.0555 12.0747 14.8336C12.4591 14.6751 12.6192 14.2314 12.4911 13.851C12.427 13.6292 12.2669 13.4707 12.0427 13.3756C11.7865 13.2488 11.4982 13.1537 11.242 13.0269C11.1459 12.9952 11.0819 12.8368 11.0819 12.7417C11.0819 12.6783 11.21 12.5515 11.274 12.5515C11.3701 12.5515 11.4982 12.6149 11.5943 12.6783C11.6263 12.6783 11.6263 12.7417 11.6263 12.7417C11.6584 12.7734 11.7224 12.8368 11.7865 12.8368C12.0427 12.8685 12.2669 12.8685 12.4911 12.8685ZM8.45552 12.0444C8.45552 13.0269 8.45552 13.9778 8.45552 14.9287C9 14.9287 9.54448 14.9287 10.089 14.9287C10.089 14.7385 10.089 14.58 10.089 14.4216C9.76868 14.4216 9.48043 14.4216 9.16014 14.4216C9.16014 13.6292 9.16014 12.8368 9.16014 12.0761C8.90391 12.0444 8.67972 12.0444 8.45552 12.0444ZM13.3238 2.85262C13.8683 2.85262 14.3808 2.85262 14.8612 2.85262C14.3488 2.34548 13.8363 1.83835 13.3238 1.33122C13.3238 1.80666 13.3238 2.31379 13.3238 2.85262Z" fill="#5663B1"/>
<path id="Vector_2" d="M11.2739 4.50078C12.1067 4.50078 12.9074 4.50078 13.7401 4.50078C14.3807 4.50078 14.4127 4.53247 14.4127 5.16639C14.4127 6.27574 14.4127 7.41679 14.4127 8.52614C14.4127 8.93818 14.3166 9.03327 13.9003 9.03327C10.6013 9.03327 7.27037 9.03327 3.97144 9.03327C3.5871 9.03327 3.45898 8.93818 3.45898 8.52614C3.45898 6.68778 3.45898 4.88113 3.45898 3.04278C3.45898 2.66243 3.55507 2.53564 3.93941 2.53564C6.21343 2.53564 8.48745 2.53564 10.7615 2.53564C11.1458 2.53564 11.2419 2.66243 11.2419 3.01108C11.2739 3.54991 11.2739 3.99365 11.2739 4.50078ZM4.19564 4.46908C5.34866 4.46908 6.46966 4.46908 7.59066 4.46908C7.59066 4.05704 7.59066 3.67669 7.59066 3.29634C6.43763 3.29634 5.34866 3.29634 4.19564 3.29634C4.19564 3.70839 4.19564 4.08873 4.19564 4.46908ZM7.59066 5.22978C6.43763 5.22978 5.31664 5.22978 4.19564 5.22978C4.19564 5.64183 4.19564 6.02217 4.19564 6.40252C5.34866 6.40252 6.46966 6.40252 7.59066 6.40252C7.59066 5.99048 7.59066 5.61013 7.59066 5.22978ZM7.59066 7.13152C6.43763 7.13152 5.31664 7.13152 4.19564 7.13152C4.19564 7.54357 4.19564 7.92392 4.19564 8.30427C5.34866 8.30427 6.46966 8.30427 7.59066 8.30427C7.59066 7.92392 7.59066 7.54357 7.59066 7.13152ZM11.306 5.22978C11.306 5.64183 11.306 6.02217 11.306 6.40252C12.1067 6.40252 12.9074 6.40252 13.6761 6.40252C13.6761 5.99048 13.6761 5.61013 13.6761 5.22978C12.8754 5.22978 12.1067 5.22978 11.306 5.22978ZM13.6761 7.13152C12.8754 7.13152 12.0746 7.13152 11.2739 7.13152C11.2739 7.54357 11.2739 7.92392 11.2739 8.30427C12.0746 8.30427 12.8754 8.30427 13.6761 8.30427C13.6761 7.92392 13.6761 7.54357 13.6761 7.13152ZM8.32731 4.46908C9.09599 4.46908 9.80062 4.46908 10.5373 4.46908C10.5373 4.05704 10.5373 3.67669 10.5373 3.29634C9.80062 3.29634 9.06397 3.29634 8.32731 3.29634C8.32731 3.70839 8.32731 4.08873 8.32731 4.46908ZM8.32731 6.40252C9.09599 6.40252 9.80062 6.40252 10.5373 6.40252C10.5373 5.99048 10.5373 5.61013 10.5373 5.22978C9.80062 5.22978 9.06397 5.22978 8.32731 5.22978C8.32731 5.61013 8.32731 5.99048 8.32731 6.40252ZM10.5693 7.13152C9.83265 7.13152 9.09599 7.13152 8.35934 7.13152C8.35934 7.54357 8.35934 7.92392 8.35934 8.30427C9.09599 8.30427 9.83265 8.30427 10.5693 8.30427C10.5693 7.92392 10.5693 7.54357 10.5693 7.13152Z" fill="#5663B1"/>
</g>
</g>
<defs>
<clipPath id="clip0_2495_29946">
<rect width="18" height="20" fill="white"/>
</clipPath>
</defs>
</svg>
